<svg xmlns="http://www.w3.org/2000/svg" version="1.1" xmlns:xlink="http://www.w3.org/1999/xlink" viewBox="0 0 200 200" width="200" height="200"><metadata><rdf:RDF xmlns:rdf="http://www.w3.org/1999/02/22-rdf-syntax-ns#" xmlns:dc="http://purl.org/dc/elements/1.1/"><rdf:Description><dc:creator>RealFaviconGenerator</dc:creator><dc:source>https://realfavicongenerator.net</dc:source></rdf:Description></rdf:RDF></metadata><rect width="200" height="200" fill="url('#gradient')"></rect><defs><linearGradient id="gradient" gradientTransform="rotate(45 0.5 0.5)"><stop offset="0%" stop-color="#697f83"></stop><stop offset="100%" stop-color="#161f2f"></stop></linearGradient></defs><g><g fill="#b1d6bb" transform="matrix(7.996529284164859,0,0,7.996529284164859,2.6444034853364258,140.54564352304453)" stroke="#498990" stroke-width="0.2"><path d="M11.68-4.88L11.68-4.88Q11.68-3.15 10.17-2.27L10.17-2.27Q11.51-1.26 11.51 0.60L11.51 0.60Q11.51 2.32 10.13 3.30Q8.75 4.27 6.33 4.27L6.33 4.27Q3.71 4.27 2.31 3.22Q0.92 2.18 0.92 0.24L0.92 0.24L4.22 0.24Q4.22 0.98 4.71 1.35Q5.21 1.72 6.33 1.72L6.33 1.72Q8.21 1.72 8.21 0.61L8.21 0.61Q8.21 0.04 7.65-0.31Q7.09-0.66 5.34-1.15Q3.59-1.64 2.71-2.17Q1.82-2.71 1.37-3.43Q0.92-4.16 0.92-5.16L0.92-5.16Q0.92-6.88 2.45-7.79L2.45-7.79Q1.07-8.83 1.07-10.64L1.07-10.64Q1.07-12.34 2.49-13.38Q3.91-14.41 6.29-14.41L6.29-14.41Q8.73-14.41 10.11-13.32Q11.48-12.23 11.48-10.26L11.48-10.26L8.19-10.26Q8.19-11.00 7.69-11.44Q7.19-11.88 6.29-11.88L6.29-11.88Q5.36-11.88 4.87-11.55Q4.38-11.23 4.38-10.66L4.38-10.66Q4.38-10.02 4.93-9.69Q5.48-9.36 6.90-8.99Q8.33-8.62 9.17-8.26Q10.01-7.90 10.56-7.42Q11.11-6.94 11.40-6.32Q11.68-5.70 11.68-4.88ZM5.83-6.37L5.83-6.37Q5.22-6.52 4.69-6.72L4.69-6.72Q4.21-6.33 4.21-5.55L4.21-5.55Q4.21-4.88 4.64-4.54Q5.08-4.19 6.74-3.67L6.74-3.67L7.89-3.34Q8.44-3.77 8.44-4.51L8.44-4.51Q8.44-5.12 7.90-5.50Q7.36-5.89 5.83-6.37ZM17.29-7.30L18.45-2.95L21.04-14.22L23.43-14.22L19.99 0L17.09 0L15.52-4.74L13.20-4.74L13.20-7.30L17.29-7.30Z"></path></g></g></svg>